#!OML:ASF E:\Style4\Style4.ASF
:FULLY-SPECIFIED
:DEGREES
1807
root 1.53388 17.343 -2.32659 8.46887 -23.4576 3.16153
lowerback 18.9189 1.28773 -2.09567
upperback 12.3728 1.1372 0.432371
thorax 2.70181 0.338716 1.45213
lowerneck 1.57408 -3.43754 -5.02349
upperneck 0.038681 -4.66063 2.08741
head -0.079731 -2.33661 1.50576
rclavicle 7.95139e-015 2.46493e-014
rhumerus 2.6756 34.675 -67.7536
rradius 56.9453
rwrist -46.181
rhand 4.23462 2.42976
rfingers 7.12502
rthumb 29.6397 -25.2222
lclavicle 7.95139e-015 2.46493e-014
lhumerus 1.98966 -43.4163 66.2209
lradius 65.7092
lwrist 30.0009
lhand 9.5779 25.4839
lfingers 7.12502
lthumb 34.7259 52.1036
rfemur -38.4146 9.79233 9.58932
rtibia 43.0337
rfoot -15.5632 -1.28222
rtoes -13.6489
lfemur -31.5786 9.7621 -28.6906
ltibia 44.2882
lfoot -25.201 15.6303
ltoes -10.4019
1808
root 1.53119 17.3605 -2.32091 8.64407 -23.5967 3.18756
lowerback 18.7275 1.35496 -2.27338
upperback 12.2985 1.20503 0.488379
thorax 2.71062 0.361259 1.60254
lowerneck 1.71871 -3.42542 -5.18996
upperneck -0.0449145 -4.65494 2.10881
head -0.125781 -2.33355 1.54588
rclavicle 2.74323e-014 -1.82882e-014
rhumerus 2.33407 37.3102 -66.2399
rradius 59.093
rwrist -47.6197
rhand 4.39592 2.27773
rfingers 7.12502
rthumb 29.7936 -25.3467
lclavicle 2.74323e-014 -1.82882e-014
lhumerus 2.01525 -45.9465 65.1105
lradius 67.9674
lwrist 30.8142
lhand 9.50058 25.3191
lfingers 7.12502
lthumb 34.6525 51.9556
rfemur -38.3481 9.73967 9.5491
rtibia 42.5175
rfoot -15.3059 -1.13702
rtoes -13.4665
lfemur -31.4916 9.76577 -28.7441
ltibia 43.839
lfoot -25.1295 15.6017
ltoes -10.0019
1809
root 1.52801 17.3834 -2.31416 8.74829 -23.6963 3.21244
lowerback 18.665 1.46663 -2.29887
upperback 12.2753 1.34765 0.500669
thorax 2.7096 0.431157 1.60774
lowerneck 1.60467 -3.49459 -5.20686
upperneck -3.12204e-005 -4.74151 2.11049
head -0.0889404 -2.37691 1.54614
rclavicle 2.3059e-014 1.19271e-014
rhumerus 1.95343 39.4045 -64.8589
rradius 61.0764
rwrist -48.8878
rhand 4.5263 2.2804
rfingers 7.12502
rthumb 29.918 -25.3217
lclavicle 2.3059e-014 1.19271e-014
lhumerus 2.89197 -48.4705 63.2951
lradius 70.0955
lwrist 31.9837
lhand 9.60219 25.2626
lfingers 7.12502
lthumb 34.7489 51.8769
rfemur -38.1956 9.68445 9.52366
rtibia 42.0393
rfoot -15.1134 -0.951737
rtoes -13.1305
lfemur -31.3802 9.69106 -28.7727
ltibia 43.466
lfoot -24.9387 15.8212
ltoes -9.96652
1810
root 1.52555 17.4113 -2.30916 8.83749 -23.7422 3.13142
lowerback 18.6893 1.52716 -2.40781
upperback 12.1818 1.411 0.616318
thorax 2.5871 0.454834 1.78012
lowerneck 1.69559 -3.49021 -5.19451
upperneck 0.023918 -4.74068 1.96715
head -0.100669 -2.37645 1.49994
rclavicle -1.55052e-014 -2.90226e-014
rhumerus 1.40713 41.5262 -63.6261
rradius 63.0286
rwrist -49.932
rhand 4.6217 2.42678
rfingers 7.12502
rthumb 30.0091 -25.1588
lclavicle -1.55052e-014 -2.90226e-014
lhumerus 2.73939 -50.3198 62.4106
lradius 72.2654
lwrist 32.5897
lhand 10.1175 25.1406
lfingers 7.12502
lthumb 35.2378 51.6408
rfemur -38.0002 9.67249 9.61123
rtibia 41.6209
rfoot -14.9549 -0.843452
rtoes -12.8962
lfemur -31.3036 9.57717 -28.6692
ltibia 43.1576
lfoot -24.6929 16.23
ltoes -10.2501
1811
root 1.52441 17.4258 -2.3071 9.05315 -23.7447 2.984
lowerback 18.6237 1.54613 -2.31386
upperback 12.0875 1.4528 0.672965
thorax 2.51441 0.481709 1.78043
lowerneck 1.66322 -3.49487 -5.23336
upperneck 0.128917 -4.74552 1.98809
head -0.0610801 -2.37991 1.5112
rclavicle -1.74931e-014 2.0276e-014
rhumerus 0.780743 43.1449 -62.6446
rradius 64.9198
rwrist -50.9034
rhand 4.7671 2.56044
rfingers 7.12502
rthumb 30.1478 -25
lclavicle -1.74931e-014 2.0276e-014
lhumerus 1.93502 -51.8591 62.1337
lradius 74.4688
lwrist 32.8437
lhand 10.7282 24.8549
lfingers 7.12502
lthumb 35.8166 51.2162
rfemur -37.9754 9.62233 9.7489
rtibia 41.2812
rfoot -14.7956 -0.770178
rtoes -12.6669
lfemur -31.3247 9.47777 -28.5265
ltibia 42.9121
lfoot -24.6878 16.2405
ltoes -10.2763
1812
root 1.52179 17.4292 -2.30614 9.23563 -23.7874 2.8958
lowerback 18.5665 1.5907 -2.25107
upperback 12.0096 1.52238 0.688866
thorax 2.455 0.521709 1.75067
lowerneck 1.63841 -3.51624 -5.21478
upperneck 0.143449 -4.77223 2.00502
head -0.0514219 -2.39338 1.5126
rclavicle 3.10104e-014 1.90833e-014
rhumerus 0.105308 44.2858 -61.82
rradius 66.7497
rwrist -51.9516
rhand 5.4175 2.3861
rfingers 7.12502
rthumb 30.7681 -25.0593
lclavicle 3.10104e-014 1.90833e-014
lhumerus 1.47211 -53.3245 61.554
lradius 76.6195
lwrist 33.5583
lhand 11.3513 24.9473
lfingers 7.12502
lthumb 36.4069 51.1628
rfemur -38.0202 9.57259 9.83253
rtibia 41.0343
rfoot -14.6706 -0.650043
rtoes -12.2731
lfemur -31.3044 9.4619 -28.4581
ltibia 42.7291
lfoot -24.7713 16.0422
ltoes -10.6106
